# xmcd
#
# Track frame offsets: 
#        150
#        8114
#        31461
#        61298
#        80419
#        108618
#        135847
#        172093
#        193974
#        216392
#        239186
#        282229
#        303780
#        329628
#
# Disc length: 4725 seconds
#
# Revision: 1
# Processed by: cddbd v1.5.2PL0 Copyright (c) Steve Scherf et al.
# Submitted via: ExactAudioCopy v0.99pb4
#
DISCID=d212730e
DTITLE=Bruce Springsteen and the Seeger Sessions Band - CC Stockholm Ton
DTITLE=ight 2006, 10-30-06[CD1]
DYEAR=2006
DGENRE=Folk/Rock
TTITLE0=Intro
TTITLE1=Atlantic City
TTITLE2=John Henry
TTITLE3=Old Dan Tucker
TTITLE4=Further On (Up the Road)
TTITLE5=Jesse James
TTITLE6=Oh, Mary Don't You Weep
TTITLE7=Growin' Up
TTITLE8=Jesus Was an  Only Son
TTITLE9=Erie Canal
TTITLE10=My Oklahoma Home
TTITLE11=Love of the Common People
TTITLE12=The Ghost of Tom Joad
TTITLE13=Mrs. McGrath
EXTD=Crystal Cat Records
EXTT0=
EXTT1=
EXTT2=
EXTT3=
EXTT4=
EXTT5=
EXTT6=
EXTT7=
EXTT8=
EXTT9=
EXTT10=
EXTT11=
EXTT12=
EXTT13=
PLAYORDER=
